# xmcd
#
# Track frame offsets:
# 150
# 19507
# 39704
# 70687
# 94793
# 117830
# 134524
# 153924
# 175756
# 188847
#
# Disc length: 2796 seconds
#
# Revision: 0
# Processed by: cddbd v1.5.1PL0 Copyright (c) Steve Scherf et al.
# Submitted via: Audion 3.0.2 (http://www.panic.com/audion/)
#
DISCID=7b0aea0a
DTITLE=Ponticello - The Escape artist
DYEAR=1900
DGENRE=
TTITLE0=Nobody Knows Nobody
TTITLE1=The Escape Artist
TTITLE2=Woman On My Mind
TTITLE3=Find A Way
TTITLE4=Call It Quits
TTITLE5=This Part of Town
TTITLE6=Shooting Star
TTITLE7=Amaretto Waltz
TTITLE8=Two Guitars
TTITLE9=Too Dark To See
EXTD=
EXTT0=
EXTT1=
EXTT2=
EXTT3=
EXTT4=
EXTT5=
EXTT6=
EXTT7=
EXTT8=
EXTT9=
PLAYORDER=
